<svg width="22" height="22" viewBox="0 0 22 22" fill="none" xmlns="http://www.w3.org/2000/svg">
<style>
	svg {
		cursor: pointer;
		transition: all 0.3s;
		pointer-events: none;
	}

	svg:hover path {
		fill: url(#paint0_linear);
	}
</style>
<path d="M2.60102 1.39894L1.99997 0.797918L0.797918 2.00003L1.39898 2.60106L2.60102 1.39894ZM19.3655 20.5666L19.9666 21.1677L21.1686 19.9656L20.5676 19.3645L19.3655 20.5666ZM20.6011 2.60152C20.933 2.26956 20.933 1.73137 20.601 1.39944C20.2691 1.06751 19.7309 1.06753 19.3989 1.39949L20.6011 2.60152ZM1.43359 19.3665C1.10166 19.6984 1.10169 20.2366 1.43365 20.5685C1.76561 20.9005 2.3038 20.9004 2.63573 20.5685L1.43359 19.3665ZM1.39898 2.60106L19.3655 20.5666L20.5676 19.3645L2.60102 1.39894L1.39898 2.60106ZM19.3989 1.39949L1.43359 19.3665L2.63573 20.5685L20.6011 2.60152L19.3989 1.39949Z" fill="#252733"/>
<linearGradient id="paint0_linear" x1="13.904" y1="39.9829" x2="13.9985" y2="42.3389" gradientUnits="userSpaceOnUse">
<stop stop-color="#0032C3"/>
<stop offset="0.4188" stop-color="#0077BA"/>
<stop offset="0.8123" stop-color="#00B1B2"/>
<stop offset="1" stop-color="#00C8AF"/>
</linearGradient>
</svg>
