<svg width="590" height="386" viewBox="0 0 590 386" fill="none" xmlns="http://www.w3.org/2000/svg">
<g clip-path="url(#clip0_333_125)">
<rect width="590" height="386" fill="white"/>
<line x1="368.006" y1="113.414" x2="247.414" y2="234.994" stroke="black" stroke-width="2" stroke-linecap="round" stroke-dasharray="9.27 9.27"/>
<line x1="14.399" y1="61.7932" x2="245.793" y2="233.601" stroke="black" stroke-width="2" stroke-linecap="round" stroke-dasharray="9.27 9.27"/>
<line x1="79.1092" y1="376.59" x2="244.59" y2="234.891" stroke="black" stroke-width="2" stroke-linecap="round" stroke-dasharray="9.27 9.27"/>
<line x1="402.734" y1="288.63" x2="246.63" y2="236.266" stroke="black" stroke-width="2" stroke-linecap="round" stroke-dasharray="9.27 9.27"/>
<line x1="283.827" y1="8.14727" x2="247.147" y2="234.173" stroke="black" stroke-width="2" stroke-linecap="round" stroke-dasharray="9.27 9.27"/>
<circle cx="282.5" cy="18.5" r="18.5" fill="#1B63FE"/>
<circle cx="282.5" cy="18.5" r="11.5625" fill="white"/>
<path d="M318.04 36.04C317.912 36.04 317.816 36.008 317.752 35.944C317.709 35.9013 317.688 35.8053 317.688 35.656V14.856C317.688 14.3227 317.752 13.9493 317.88 13.736C318.029 13.5227 318.339 13.3093 318.808 13.096C320.131 12.456 321.699 12.136 323.512 12.136C327.587 12.136 329.624 14.2907 329.624 18.6V23.304C329.624 27.4 327.768 29.448 324.056 29.448C322.371 29.448 320.707 29.0213 319.064 28.168V35.656C319.064 35.8053 319.032 35.9013 318.968 35.944C318.925 36.008 318.84 36.04 318.712 36.04H318.04ZM319.064 26.856C319.597 27.176 320.291 27.4747 321.144 27.752C321.997 28.0293 322.915 28.168 323.896 28.168C326.797 28.168 328.248 26.536 328.248 23.272V18.632C328.248 16.8827 327.864 15.5813 327.096 14.728C326.328 13.8533 325.123 13.416 323.48 13.416C322.755 13.416 322.061 13.4907 321.4 13.64C320.76 13.7893 320.216 13.96 319.768 14.152C319.448 14.3227 319.245 14.4613 319.16 14.568C319.096 14.6747 319.064 14.888 319.064 15.208V26.856ZM339.811 29.448C337.678 29.448 336.12 29.0533 335.139 28.264C334.158 27.4747 333.667 26.2373 333.667 24.552C333.667 22.9093 334.168 21.704 335.171 20.936C336.195 20.1467 337.774 19.752 339.907 19.752C340.995 19.752 341.934 19.8053 342.723 19.912C343.534 20.0187 343.982 20.0827 344.067 20.104V18.056C344.067 16.4133 343.726 15.2293 343.043 14.504C342.36 13.7573 341.283 13.384 339.811 13.384C337.742 13.384 336.248 14.2907 335.331 16.104C335.267 16.2107 335.192 16.2853 335.107 16.328C335.043 16.3493 334.947 16.328 334.819 16.264L334.403 16.072C334.232 16.008 334.147 15.912 334.147 15.784C334.147 15.6773 334.168 15.592 334.211 15.528C335.256 13.2667 337.123 12.136 339.811 12.136C341.774 12.136 343.192 12.6267 344.067 13.608C344.963 14.5893 345.411 16.0933 345.411 18.12V26.792C345.411 27.3467 345.336 27.7413 345.187 27.976C345.059 28.2107 344.792 28.424 344.387 28.616C343.235 29.1707 341.71 29.448 339.811 29.448ZM335.043 24.552C335.043 25.832 335.416 26.7813 336.163 27.4C336.931 27.9973 338.115 28.296 339.715 28.296C341.251 28.296 342.478 28.072 343.395 27.624C343.672 27.5173 343.854 27.4 343.939 27.272C344.024 27.1227 344.067 26.856 344.067 26.472V21.256C342.531 21 341.112 20.872 339.811 20.872C338.19 20.872 336.984 21.1707 336.195 21.768C335.427 22.3653 335.043 23.2933 335.043 24.552ZM356.099 29.448C352.92 29.448 350.734 27.9547 349.539 24.968C349.496 24.84 349.475 24.7653 349.475 24.744C349.475 24.616 349.582 24.52 349.795 24.456L350.307 24.296C350.371 24.2747 350.446 24.264 350.531 24.264C350.638 24.264 350.723 24.36 350.787 24.552C351.704 26.984 353.454 28.2 356.035 28.2C357.55 28.2 358.68 27.88 359.427 27.24C360.195 26.5787 360.579 25.6827 360.579 24.552C360.579 23.4213 360.302 22.5787 359.747 22.024C359.192 21.4693 358.307 21.192 357.091 21.192H353.955C353.827 21.192 353.742 21.1707 353.699 21.128C353.656 21.064 353.635 20.9573 353.635 20.808V20.392C353.635 20.2427 353.656 20.1467 353.699 20.104C353.742 20.04 353.827 20.008 353.955 20.008H357.091C358.136 20.008 358.936 19.7307 359.491 19.176C360.046 18.6213 360.323 17.8427 360.323 16.84C360.323 15.8373 359.95 15.016 359.203 14.376C358.478 13.7147 357.4 13.384 355.971 13.384C354.606 13.384 353.486 13.7253 352.611 14.408C351.736 15.0907 351.182 15.8693 350.947 16.744C350.904 16.9147 350.851 17.0213 350.787 17.064C350.723 17.0853 350.616 17.0747 350.467 17.032L349.987 16.872C349.752 16.7867 349.678 16.6053 349.763 16.328C350.083 15.432 350.691 14.5147 351.587 13.576C352.504 12.616 353.966 12.136 355.971 12.136C357.848 12.136 359.267 12.5627 360.227 13.416C361.208 14.248 361.699 15.368 361.699 16.776C361.699 17.6507 361.507 18.408 361.123 19.048C360.739 19.688 360.163 20.168 359.395 20.488V20.52C361.123 21.0533 361.987 22.4293 361.987 24.648C361.987 26.1413 361.496 27.3147 360.515 28.168C359.534 29.0213 358.062 29.448 356.099 29.448ZM367.009 36.04C366.881 36.04 366.785 36.008 366.721 35.944C366.678 35.9013 366.657 35.8053 366.657 35.656V14.856C366.657 14.3227 366.721 13.9493 366.849 13.736C366.998 13.5227 367.307 13.3093 367.777 13.096C369.099 12.456 370.667 12.136 372.481 12.136C376.555 12.136 378.593 14.2907 378.593 18.6V23.304C378.593 27.4 376.737 29.448 373.025 29.448C371.339 29.448 369.675 29.0213 368.033 28.168V35.656C368.033 35.8053 368.001 35.9013 367.937 35.944C367.894 36.008 367.809 36.04 367.681 36.04H367.009ZM368.033 26.856C368.566 27.176 369.259 27.4747 370.113 27.752C370.966 28.0293 371.883 28.168 372.865 28.168C375.766 28.168 377.217 26.536 377.217 23.272V18.632C377.217 16.8827 376.833 15.5813 376.065 14.728C375.297 13.8533 374.091 13.416 372.449 13.416C371.723 13.416 371.03 13.4907 370.369 13.64C369.729 13.7893 369.185 13.96 368.737 14.152C368.417 14.3227 368.214 14.4613 368.129 14.568C368.065 14.6747 368.033 14.888 368.033 15.208V26.856ZM388.78 29.448C386.646 29.448 385.089 29.0533 384.108 28.264C383.126 27.4747 382.636 26.2373 382.636 24.552C382.636 22.9093 383.137 21.704 384.14 20.936C385.164 20.1467 386.742 19.752 388.876 19.752C389.964 19.752 390.902 19.8053 391.692 19.912C392.502 20.0187 392.95 20.0827 393.036 20.104V18.056C393.036 16.4133 392.694 15.2293 392.012 14.504C391.329 13.7573 390.252 13.384 388.78 13.384C386.71 13.384 385.217 14.2907 384.3 16.104C384.236 16.2107 384.161 16.2853 384.076 16.328C384.012 16.3493 383.916 16.328 383.788 16.264L383.372 16.072C383.201 16.008 383.116 15.912 383.116 15.784C383.116 15.6773 383.137 15.592 383.18 15.528C384.225 13.2667 386.092 12.136 388.78 12.136C390.742 12.136 392.161 12.6267 393.036 13.608C393.932 14.5893 394.38 16.0933 394.38 18.12V26.792C394.38 27.3467 394.305 27.7413 394.156 27.976C394.028 28.2107 393.761 28.424 393.356 28.616C392.204 29.1707 390.678 29.448 388.78 29.448ZM384.012 24.552C384.012 25.832 384.385 26.7813 385.132 27.4C385.9 27.9973 387.084 28.296 388.684 28.296C390.22 28.296 391.446 28.072 392.364 27.624C392.641 27.5173 392.822 27.4 392.908 27.272C392.993 27.1227 393.036 26.856 393.036 26.472V21.256C391.5 21 390.081 20.872 388.78 20.872C387.158 20.872 385.953 21.1707 385.164 21.768C384.396 22.3653 384.012 23.2933 384.012 24.552ZM405.74 29.448C403.713 29.448 402.156 28.9147 401.068 27.848C400.001 26.76 399.468 25.256 399.468 23.336V15.176C399.468 12.808 399.702 10.9307 400.172 9.544C400.662 8.15733 401.473 7.144 402.604 6.504C403.734 5.864 405.292 5.544 407.276 5.544H408.332C409.441 5.544 410.23 5.39467 410.7 5.096C410.828 5.05333 410.902 5.032 410.924 5.032C411.03 5.032 411.126 5.128 411.212 5.32L411.404 5.8L411.468 5.992C411.468 6.07733 411.372 6.184 411.18 6.312C410.582 6.67467 409.665 6.856 408.428 6.856H407.308C405.644 6.856 404.342 7.112 403.404 7.624C402.465 8.136 401.793 8.97867 401.388 10.152C400.982 11.304 400.78 12.8933 400.78 14.92V15.688C401.206 14.984 401.836 14.344 402.668 13.768C403.521 13.1707 404.609 12.872 405.932 12.872C407.916 12.872 409.43 13.4053 410.476 14.472C411.542 15.5387 412.076 17.032 412.076 18.952V23.336C412.076 25.2773 411.532 26.7813 410.444 27.848C409.377 28.9147 407.809 29.448 405.74 29.448ZM400.844 23.304C400.844 24.8613 401.26 26.0667 402.092 26.92C402.924 27.7733 404.14 28.2 405.74 28.2C407.361 28.2 408.588 27.7733 409.42 26.92C410.273 26.0667 410.7 24.8613 410.7 23.304V19.016C410.7 17.4587 410.273 16.2533 409.42 15.4C408.588 14.5467 407.361 14.12 405.74 14.12C404.737 14.12 403.884 14.3227 403.18 14.728C402.476 15.112 401.932 15.5707 401.548 16.104C401.185 16.616 400.95 17.064 400.844 17.448V23.304ZM422.667 29.448C420.768 29.448 419.253 28.9467 418.123 27.944C417.013 26.9413 416.459 25.576 416.459 23.848V17.768C416.459 16.04 417.013 14.6747 418.123 13.672C419.253 12.648 420.768 12.136 422.667 12.136C424.587 12.136 426.101 12.6373 427.211 13.64C428.341 14.6427 428.907 16.0187 428.907 17.768V23.848C428.907 25.5973 428.341 26.9733 427.211 27.976C426.101 28.9573 424.587 29.448 422.667 29.448ZM417.835 23.848C417.835 25.1707 418.272 26.2267 419.147 27.016C420.043 27.8053 421.216 28.2 422.667 28.2C424.139 28.2 425.312 27.816 426.187 27.048C427.083 26.2587 427.531 25.192 427.531 23.848V17.736C427.531 16.392 427.083 15.336 426.187 14.568C425.312 13.8 424.139 13.416 422.667 13.416C421.216 13.416 420.043 13.8107 419.147 14.6C418.272 15.368 417.835 16.4133 417.835 17.736V23.848ZM437.498 29C437.37 29 437.274 28.9787 437.21 28.936C437.167 28.872 437.146 28.7653 437.146 28.616V13.864H432.25C432.122 13.864 432.026 13.8427 431.962 13.8C431.919 13.7573 431.898 13.6613 431.898 13.512V12.968C431.898 12.7333 432.015 12.616 432.25 12.616H443.386C443.62 12.616 443.738 12.7333 443.738 12.968V13.512C443.738 13.6613 443.706 13.7573 443.642 13.8C443.599 13.8427 443.514 13.864 443.386 13.864H438.522V28.616C438.522 28.7653 438.49 28.872 438.426 28.936C438.383 28.9787 438.298 29 438.17 29H437.498ZM447.824 29C447.674 29 447.578 28.9787 447.536 28.936C447.493 28.872 447.472 28.7653 447.472 28.616V12.968C447.472 12.84 447.493 12.7547 447.536 12.712C447.578 12.648 447.674 12.616 447.824 12.616H448.496C448.73 12.616 448.848 12.7333 448.848 12.968V19.912H452.784H453.104L457.872 12.904C457.957 12.776 458.042 12.7013 458.128 12.68C458.213 12.6373 458.362 12.616 458.576 12.616H459.12C459.354 12.616 459.472 12.68 459.472 12.808C459.472 12.8507 459.44 12.9253 459.376 13.032L454.416 20.168C455.013 20.3173 455.504 20.5947 455.888 21C456.293 21.4053 456.666 21.9813 457.008 22.728L459.6 28.584L459.664 28.84C459.664 28.9467 459.557 29 459.344 29H458.768C458.554 29 458.405 28.9787 458.32 28.936C458.256 28.8933 458.202 28.808 458.16 28.68L455.824 23.304C455.504 22.5573 455.12 22.024 454.672 21.704C454.224 21.3627 453.637 21.192 452.911 21.192H448.848V28.616C448.848 28.7653 448.816 28.872 448.752 28.936C448.709 28.9787 448.624 29 448.496 29H447.824ZM468.78 29.448C466.646 29.448 465.089 29.0533 464.108 28.264C463.126 27.4747 462.636 26.2373 462.636 24.552C462.636 22.9093 463.137 21.704 464.14 20.936C465.164 20.1467 466.742 19.752 468.876 19.752C469.964 19.752 470.902 19.8053 471.692 19.912C472.502 20.0187 472.95 20.0827 473.036 20.104V18.056C473.036 16.4133 472.694 15.2293 472.012 14.504C471.329 13.7573 470.252 13.384 468.78 13.384C466.71 13.384 465.217 14.2907 464.3 16.104C464.236 16.2107 464.161 16.2853 464.076 16.328C464.012 16.3493 463.916 16.328 463.788 16.264L463.372 16.072C463.201 16.008 463.116 15.912 463.116 15.784C463.116 15.6773 463.137 15.592 463.18 15.528C464.225 13.2667 466.092 12.136 468.78 12.136C470.742 12.136 472.161 12.6267 473.036 13.608C473.932 14.5893 474.38 16.0933 474.38 18.12V26.792C474.38 27.3467 474.305 27.7413 474.156 27.976C474.028 28.2107 473.761 28.424 473.356 28.616C472.204 29.1707 470.678 29.448 468.78 29.448ZM464.012 24.552C464.012 25.832 464.385 26.7813 465.132 27.4C465.9 27.9973 467.084 28.296 468.684 28.296C470.22 28.296 471.446 28.072 472.364 27.624C472.641 27.5173 472.822 27.4 472.908 27.272C472.993 27.1227 473.036 26.856 473.036 26.472V21.256C471.5 21 470.081 20.872 468.78 20.872C467.158 20.872 465.953 21.1707 465.164 21.768C464.396 22.3653 464.012 23.2933 464.012 24.552Z" fill="black"/>
<circle cx="18.5" cy="65.5" r="18.5" fill="#1B63FE"/>
<circle cx="18.5002" cy="65.5" r="11.5625" fill="white"/>
<path d="M54.104 76C53.8693 76 53.752 75.872 53.752 75.616V59.968C53.752 59.7333 53.8693 59.616 54.104 59.616H54.808C54.936 59.616 55.0213 59.648 55.064 59.712C55.1067 59.7547 55.128 59.84 55.128 59.968V70.816C55.128 72.1173 55.064 73.1947 54.936 74.048H55L55.352 73.44C55.9067 72.4587 56.248 71.8827 56.376 71.712L64.472 59.776C64.5573 59.6693 64.6747 59.616 64.824 59.616H65.624C65.8587 59.616 65.976 59.7333 65.976 59.968V75.616C65.976 75.7653 65.944 75.872 65.88 75.936C65.8373 75.9787 65.752 76 65.624 76H64.952C64.824 76 64.728 75.9787 64.664 75.936C64.6213 75.872 64.6 75.7653 64.6 75.616V65.056C64.6 63.7973 64.664 62.624 64.792 61.536H64.728C64.28 62.3253 63.7787 63.168 63.224 64.064L55.288 75.776C55.224 75.9253 55.096 76 54.904 76H54.104ZM77.0068 76.448C75.0228 76.448 73.5081 75.9147 72.4628 74.848C71.4174 73.76 70.8948 72.2347 70.8948 70.272V65.312C70.8948 63.3493 71.4174 61.8347 72.4628 60.768C73.5081 59.68 75.0548 59.136 77.1028 59.136C78.8094 59.136 80.1214 59.5093 81.0388 60.256C81.9774 61.0027 82.6494 62.0907 83.0548 63.52C83.0761 63.584 83.0868 63.6587 83.0868 63.744C83.0868 63.8933 83.0014 64 82.8308 64.064L82.2868 64.256L82.0948 64.288C81.9668 64.288 81.8708 64.192 81.8068 64C81.4654 62.7413 80.9321 61.824 80.2068 61.248C79.4814 60.672 78.4361 60.384 77.0708 60.384C75.4921 60.384 74.2974 60.8213 73.4868 61.696C72.6761 62.5493 72.2708 63.744 72.2708 65.28V70.272C72.2708 71.808 72.6761 73.0133 73.4868 73.888C74.3188 74.7627 75.5028 75.2 77.0388 75.2C78.3614 75.2 79.3854 74.912 80.1108 74.336C80.8574 73.7387 81.4334 72.7893 81.8388 71.488C81.8814 71.3387 81.9348 71.2533 81.9988 71.232C82.0628 71.1893 82.1588 71.1893 82.2868 71.232L82.8948 71.424C83.1721 71.488 83.2468 71.6587 83.1188 71.936C82.5854 73.4933 81.8494 74.6347 80.9108 75.36C79.9934 76.0853 78.6921 76.448 77.0068 76.448ZM93.163 76.448C91.179 76.448 89.6643 75.9147 88.619 74.848C87.5737 73.76 87.051 72.2347 87.051 70.272V65.312C87.051 63.3493 87.5737 61.8347 88.619 60.768C89.6643 59.68 91.211 59.136 93.259 59.136C94.9657 59.136 96.2777 59.5093 97.195 60.256C98.1337 61.0027 98.8057 62.0907 99.211 63.52C99.2323 63.584 99.243 63.6587 99.243 63.744C99.243 63.8933 99.1577 64 98.987 64.064L98.443 64.256L98.251 64.288C98.123 64.288 98.027 64.192 97.963 64C97.6217 62.7413 97.0883 61.824 96.363 61.248C95.6377 60.672 94.5923 60.384 93.227 60.384C91.6483 60.384 90.4537 60.8213 89.643 61.696C88.8323 62.5493 88.427 63.744 88.427 65.28V70.272C88.427 71.808 88.8323 73.0133 89.643 73.888C90.475 74.7627 91.659 75.2 93.195 75.2C94.5177 75.2 95.5417 74.912 96.267 74.336C97.0137 73.7387 97.5897 72.7893 97.995 71.488C98.0377 71.3387 98.091 71.2533 98.155 71.232C98.219 71.1893 98.315 71.1893 98.443 71.232L99.051 71.424C99.3283 71.488 99.403 71.6587 99.275 71.936C98.7417 73.4933 98.0057 74.6347 97.067 75.36C96.1497 76.0853 94.8483 76.448 93.163 76.448ZM102.407 76.416C102.365 76.4373 102.311 76.448 102.247 76.448C102.183 76.448 102.098 76.384 101.991 76.256L101.639 75.616C101.597 75.5307 101.575 75.4667 101.575 75.424C101.575 75.3387 101.639 75.264 101.767 75.2C102.429 74.8587 102.962 74.4533 103.367 73.984C103.773 73.4933 104.114 72.5973 104.391 71.296C104.69 69.9733 104.839 68.0747 104.839 65.6V59.968C104.839 59.7333 104.957 59.616 105.191 59.616H114.727C114.877 59.616 114.973 59.648 115.015 59.712C115.058 59.7547 115.079 59.84 115.079 59.968V75.616C115.079 75.7653 115.058 75.872 115.015 75.936C114.973 75.9787 114.877 76 114.727 76H114.055C113.927 76 113.831 75.9787 113.767 75.936C113.725 75.872 113.703 75.7653 113.703 75.616V60.896H106.183V65.664C106.183 68.2453 106.013 70.272 105.671 71.744C105.351 73.1947 104.925 74.24 104.391 74.88C103.879 75.4987 103.218 76.0107 102.407 76.416ZM126.099 76.448C124.072 76.448 122.547 75.8933 121.523 74.784C120.499 73.6533 119.987 72.1067 119.987 70.144V65.824C119.987 63.7333 120.52 62.1013 121.587 60.928C122.675 59.7333 124.232 59.136 126.259 59.136C128.286 59.136 129.822 59.7333 130.867 60.928C131.912 62.1227 132.435 63.7333 132.435 65.76V67.392C132.435 67.8613 132.211 68.096 131.763 68.096H121.363V70.272C121.363 71.8293 121.758 73.056 122.547 73.952C123.358 74.8267 124.542 75.264 126.099 75.264C127.379 75.264 128.403 74.9973 129.171 74.464C129.939 73.9307 130.568 73.152 131.059 72.128C131.144 72 131.219 71.9253 131.283 71.904C131.368 71.8827 131.464 71.904 131.571 71.968L132.019 72.224C132.275 72.352 132.339 72.544 132.211 72.8C131.016 75.232 128.979 76.448 126.099 76.448ZM131.091 66.976V65.696C131.091 64.0107 130.686 62.6987 129.875 61.76C129.064 60.8213 127.859 60.352 126.259 60.352C124.638 60.352 123.411 60.832 122.579 61.792C121.768 62.7307 121.363 64.032 121.363 65.696V66.976H131.091ZM135.436 80.448C135.308 80.448 135.212 80.416 135.148 80.352C135.106 80.3093 135.084 80.2133 135.084 80.064V75.104C135.084 74.9547 135.106 74.8587 135.148 74.816C135.212 74.752 135.308 74.72 135.436 74.72H136.46C136.908 74.3147 137.282 73.8133 137.58 73.216C137.879 72.5973 138.124 71.648 138.316 70.368C138.508 69.0667 138.604 67.3173 138.604 65.12V59.968C138.604 59.7333 138.722 59.616 138.956 59.616H148.876C149.111 59.616 149.228 59.7333 149.228 59.968V74.72H150.924C151.074 74.72 151.17 74.752 151.212 74.816C151.255 74.8587 151.276 74.9547 151.276 75.104V80.064C151.276 80.2133 151.255 80.3093 151.212 80.352C151.17 80.416 151.074 80.448 150.924 80.448H150.316C150.167 80.448 150.06 80.416 149.996 80.352C149.954 80.3093 149.932 80.2133 149.932 80.064V76H136.428V80.064C136.428 80.2133 136.396 80.3093 136.332 80.352C136.29 80.416 136.194 80.448 136.044 80.448H135.436ZM147.852 74.72V60.864H139.948V65.184C139.948 68.0213 139.788 70.144 139.468 71.552C139.148 72.96 138.668 74.016 138.028 74.72H147.852ZM160.885 76.448C158.987 76.448 157.472 75.9467 156.342 74.944C155.232 73.9413 154.678 72.576 154.678 70.848V64.768C154.678 63.04 155.232 61.6747 156.342 60.672C157.472 59.648 158.987 59.136 160.885 59.136C162.806 59.136 164.32 59.6373 165.43 60.64C166.56 61.6427 167.126 63.0187 167.126 64.768V70.848C167.126 72.5973 166.56 73.9733 165.43 74.976C164.32 75.9573 162.806 76.448 160.885 76.448ZM156.054 70.848C156.054 72.1707 156.491 73.2267 157.366 74.016C158.262 74.8053 159.435 75.2 160.885 75.2C162.358 75.2 163.531 74.816 164.406 74.048C165.302 73.2587 165.75 72.192 165.75 70.848V64.736C165.75 63.392 165.302 62.336 164.406 61.568C163.531 60.8 162.358 60.416 160.885 60.416C159.435 60.416 158.262 60.8107 157.366 61.6C156.491 62.368 156.054 63.4133 156.054 64.736V70.848ZM172.511 76C172.255 76 172.127 75.872 172.127 75.616V60C172.127 59.744 172.255 59.616 172.511 59.616H179.295C180.66 59.616 181.716 59.9787 182.463 60.704C183.21 61.4293 183.583 62.4533 183.583 63.776C183.583 65.568 182.879 66.784 181.471 67.424C182.41 67.7653 183.092 68.2773 183.519 68.96C183.946 69.6213 184.159 70.4853 184.159 71.552C184.159 72.9387 183.764 74.0267 182.975 74.816C182.186 75.6053 181.098 76 179.711 76H172.511ZM179.487 74.816C180.532 74.816 181.332 74.5173 181.887 73.92C182.463 73.3227 182.751 72.4907 182.751 71.424C182.751 70.3573 182.463 69.536 181.887 68.96C181.311 68.3627 180.49 68.064 179.423 68.064H173.503V74.816H179.487ZM179.263 66.944C180.159 66.944 180.884 66.6773 181.439 66.144C181.994 65.5893 182.271 64.8213 182.271 63.84C182.271 62.8587 181.994 62.112 181.439 61.6C180.884 61.0667 180.095 60.8 179.071 60.8H173.503V66.944H179.263ZM194.061 76.448C191.928 76.448 190.37 76.0533 189.389 75.264C188.408 74.4747 187.917 73.2373 187.917 71.552C187.917 69.9093 188.418 68.704 189.421 67.936C190.445 67.1467 192.024 66.752 194.157 66.752C195.245 66.752 196.184 66.8053 196.973 66.912C197.784 67.0187 198.232 67.0827 198.317 67.104V65.056C198.317 63.4133 197.976 62.2293 197.293 61.504C196.61 60.7573 195.533 60.384 194.061 60.384C191.992 60.384 190.498 61.2907 189.581 63.104C189.517 63.2107 189.442 63.2853 189.357 63.328C189.293 63.3493 189.197 63.328 189.069 63.264L188.653 63.072C188.482 63.008 188.397 62.912 188.397 62.784C188.397 62.6773 188.418 62.592 188.461 62.528C189.506 60.2667 191.373 59.136 194.061 59.136C196.024 59.136 197.442 59.6267 198.317 60.608C199.213 61.5893 199.661 63.0933 199.661 65.12V73.792C199.661 74.3467 199.586 74.7413 199.437 74.976C199.309 75.2107 199.042 75.424 198.637 75.616C197.485 76.1707 195.96 76.448 194.061 76.448ZM189.293 71.552C189.293 72.832 189.666 73.7813 190.413 74.4C191.181 74.9973 192.365 75.296 193.965 75.296C195.501 75.296 196.728 75.072 197.645 74.624C197.922 74.5173 198.104 74.4 198.189 74.272C198.274 74.1227 198.317 73.856 198.317 73.472V68.256C196.781 68 195.362 67.872 194.061 67.872C192.44 67.872 191.234 68.1707 190.445 68.768C189.677 69.3653 189.293 70.2933 189.293 71.552ZM205.229 76C204.994 76 204.877 75.872 204.877 75.616V59.968C204.877 59.7333 204.994 59.616 205.229 59.616H205.933C206.061 59.616 206.146 59.648 206.189 59.712C206.232 59.7547 206.253 59.84 206.253 59.968V66.912H215.533V59.968C215.533 59.7333 215.65 59.616 215.885 59.616H216.557C216.792 59.616 216.909 59.7333 216.909 59.968V75.616C216.909 75.7653 216.877 75.872 216.813 75.936C216.77 75.9787 216.685 76 216.557 76H215.885C215.757 76 215.661 75.9787 215.597 75.936C215.554 75.872 215.533 75.7653 215.533 75.616V68.192H206.253V75.616C206.253 75.7653 206.232 75.872 206.189 75.936C206.146 75.9787 206.061 76 205.933 76H205.229ZM222.76 76C222.526 76 222.408 75.872 222.408 75.616V59.968C222.408 59.7333 222.526 59.616 222.76 59.616H223.464C223.592 59.616 223.678 59.648 223.72 59.712C223.763 59.7547 223.784 59.84 223.784 59.968V70.816C223.784 72.1173 223.72 73.1947 223.592 74.048H223.656L224.008 73.44C224.563 72.4587 224.904 71.8827 225.032 71.712L233.128 59.776C233.214 59.6693 233.331 59.616 233.48 59.616H234.28C234.515 59.616 234.632 59.7333 234.632 59.968V75.616C234.632 75.7653 234.6 75.872 234.536 75.936C234.494 75.9787 234.408 76 234.28 76H233.608C233.48 76 233.384 75.9787 233.32 75.936C233.278 75.872 233.256 75.7653 233.256 75.616V65.056C233.256 63.7973 233.32 62.624 233.448 61.536H233.384C232.936 62.3253 232.435 63.168 231.88 64.064L223.944 75.776C223.88 75.9253 223.752 76 223.56 76H222.76ZM239.551 76C239.316 76 239.199 75.9467 239.199 75.84C239.199 75.7333 239.231 75.6373 239.295 75.552L243.007 69.568C241.898 69.3973 241.012 68.8853 240.351 68.032C239.711 67.1787 239.391 66.08 239.391 64.736C239.391 63.136 239.818 61.888 240.671 60.992C241.524 60.0747 242.666 59.616 244.095 59.616H250.783C251.039 59.616 251.167 59.744 251.167 60V75.616C251.167 75.7653 251.135 75.872 251.071 75.936C251.028 75.9787 250.943 76 250.815 76H250.143C249.994 76 249.898 75.9787 249.855 75.936C249.812 75.872 249.791 75.7653 249.791 75.616V69.792H244.351L240.799 75.68C240.735 75.808 240.66 75.8933 240.575 75.936C240.49 75.9787 240.351 76 240.159 76H239.551ZM240.735 64.736C240.735 65.9093 241.055 66.848 241.695 67.552C242.356 68.2347 243.231 68.576 244.319 68.576H249.791V60.864H244.287C243.199 60.864 242.335 61.216 241.695 61.92C241.055 62.6027 240.735 63.5413 240.735 64.736Z" fill="black"/>
<circle cx="363.5" cy="117.5" r="18.5" fill="#1B63FE"/>
<circle cx="363.5" cy="117.5" r="11.5625" fill="white"/>
<path d="M405.936 128.448C403.803 128.448 402.245 128.053 401.264 127.264C400.283 126.475 399.792 125.237 399.792 123.552C399.792 121.909 400.293 120.704 401.296 119.936C402.32 119.147 403.899 118.752 406.032 118.752C407.12 118.752 408.059 118.805 408.848 118.912C409.659 119.019 410.107 119.083 410.192 119.104V117.056C410.192 115.413 409.851 114.229 409.168 113.504C408.485 112.757 407.408 112.384 405.936 112.384C403.867 112.384 402.373 113.291 401.456 115.104C401.392 115.211 401.317 115.285 401.232 115.328C401.168 115.349 401.072 115.328 400.944 115.264L400.528 115.072C400.357 115.008 400.272 114.912 400.272 114.784C400.272 114.677 400.293 114.592 400.336 114.528C401.381 112.267 403.248 111.136 405.936 111.136C407.899 111.136 409.317 111.627 410.192 112.608C411.088 113.589 411.536 115.093 411.536 117.12V125.792C411.536 126.347 411.461 126.741 411.312 126.976C411.184 127.211 410.917 127.424 410.512 127.616C409.36 128.171 407.835 128.448 405.936 128.448ZM401.168 123.552C401.168 124.832 401.541 125.781 402.288 126.4C403.056 126.997 404.24 127.296 405.84 127.296C407.376 127.296 408.603 127.072 409.52 126.624C409.797 126.517 409.979 126.4 410.064 126.272C410.149 126.123 410.192 125.856 410.192 125.472V120.256C408.656 120 407.237 119.872 405.936 119.872C404.315 119.872 403.109 120.171 402.32 120.768C401.552 121.365 401.168 122.293 401.168 123.552ZM417.104 128C416.869 128 416.752 127.872 416.752 127.616V111.968C416.752 111.733 416.869 111.616 417.104 111.616H417.808C417.936 111.616 418.021 111.648 418.064 111.712C418.107 111.755 418.128 111.84 418.128 111.968V118.912H427.408V111.968C427.408 111.733 427.525 111.616 427.76 111.616H428.432C428.667 111.616 428.784 111.733 428.784 111.968V127.616C428.784 127.765 428.752 127.872 428.688 127.936C428.645 127.979 428.56 128 428.432 128H427.76C427.632 128 427.536 127.979 427.472 127.936C427.429 127.872 427.408 127.765 427.408 127.616V120.192H418.128V127.616C418.128 127.765 418.107 127.872 418.064 127.936C418.021 127.979 417.936 128 417.808 128H417.104ZM439.467 128.448C437.334 128.448 435.777 128.053 434.795 127.264C433.814 126.475 433.323 125.237 433.323 123.552C433.323 121.909 433.825 120.704 434.827 119.936C435.851 119.147 437.43 118.752 439.563 118.752C440.651 118.752 441.59 118.805 442.379 118.912C443.19 119.019 443.638 119.083 443.723 119.104V117.056C443.723 115.413 443.382 114.229 442.699 113.504C442.017 112.757 440.939 112.384 439.467 112.384C437.398 112.384 435.905 113.291 434.987 115.104C434.923 115.211 434.849 115.285 434.763 115.328C434.699 115.349 434.603 115.328 434.475 115.264L434.059 115.072C433.889 115.008 433.803 114.912 433.803 114.784C433.803 114.677 433.825 114.592 433.867 114.528C434.913 112.267 436.779 111.136 439.467 111.136C441.43 111.136 442.849 111.627 443.723 112.608C444.619 113.589 445.067 115.093 445.067 117.12V125.792C445.067 126.347 444.993 126.741 444.843 126.976C444.715 127.211 444.449 127.424 444.043 127.616C442.891 128.171 441.366 128.448 439.467 128.448ZM434.699 123.552C434.699 124.832 435.073 125.781 435.819 126.4C436.587 126.997 437.771 127.296 439.371 127.296C440.907 127.296 442.134 127.072 443.051 126.624C443.329 126.517 443.51 126.4 443.595 126.272C443.681 126.123 443.723 125.856 443.723 125.472V120.256C442.187 120 440.769 119.872 439.467 119.872C437.846 119.872 436.641 120.171 435.851 120.768C435.083 121.365 434.699 122.293 434.699 123.552ZM448.907 128.416C448.865 128.437 448.811 128.448 448.747 128.448C448.683 128.448 448.598 128.384 448.491 128.256L448.139 127.616C448.097 127.531 448.075 127.467 448.075 127.424C448.075 127.339 448.139 127.264 448.267 127.2C448.929 126.859 449.462 126.453 449.867 125.984C450.273 125.493 450.614 124.597 450.891 123.296C451.19 121.973 451.339 120.075 451.339 117.6V111.968C451.339 111.733 451.457 111.616 451.691 111.616H461.227C461.377 111.616 461.473 111.648 461.515 111.712C461.558 111.755 461.579 111.84 461.579 111.968V127.616C461.579 127.765 461.558 127.872 461.515 127.936C461.473 127.979 461.377 128 461.227 128H460.555C460.427 128 460.331 127.979 460.267 127.936C460.225 127.872 460.203 127.765 460.203 127.616V112.896H452.683V117.664C452.683 120.245 452.513 122.272 452.171 123.744C451.851 125.195 451.425 126.24 450.891 126.88C450.379 127.499 449.718 128.011 448.907 128.416ZM467.479 128C467.244 128 467.127 127.872 467.127 127.616V111.968C467.127 111.733 467.244 111.616 467.479 111.616H468.183C468.311 111.616 468.396 111.648 468.439 111.712C468.482 111.755 468.503 111.84 468.503 111.968V122.816C468.503 124.117 468.439 125.195 468.311 126.048H468.375L468.727 125.44C469.282 124.459 469.623 123.883 469.751 123.712L477.847 111.776C477.932 111.669 478.05 111.616 478.199 111.616H478.999C479.234 111.616 479.351 111.733 479.351 111.968V127.616C479.351 127.765 479.319 127.872 479.255 127.936C479.212 127.979 479.127 128 478.999 128H478.327C478.199 128 478.103 127.979 478.039 127.936C477.996 127.872 477.975 127.765 477.975 127.616V117.056C477.975 115.797 478.039 114.624 478.167 113.536H478.103C477.655 114.325 477.154 115.168 476.599 116.064L468.663 127.776C468.599 127.925 468.471 128 468.279 128H467.479ZM488.654 128C488.526 128 488.43 127.979 488.366 127.936C488.323 127.872 488.302 127.765 488.302 127.616V112.864H483.406C483.278 112.864 483.182 112.843 483.118 112.8C483.075 112.757 483.054 112.661 483.054 112.512V111.968C483.054 111.733 483.171 111.616 483.406 111.616H494.542C494.776 111.616 494.894 111.733 494.894 111.968V112.512C494.894 112.661 494.862 112.757 494.798 112.8C494.755 112.843 494.67 112.864 494.542 112.864H489.678V127.616C489.678 127.765 489.646 127.872 489.582 127.936C489.539 127.979 489.454 128 489.326 128H488.654ZM498.948 128C498.713 128 498.596 127.872 498.596 127.616V111.968C498.596 111.733 498.713 111.616 498.948 111.616H499.652C499.78 111.616 499.865 111.648 499.908 111.712C499.95 111.755 499.972 111.84 499.972 111.968V122.816C499.972 124.117 499.908 125.195 499.78 126.048H499.844L500.196 125.44C500.75 124.459 501.092 123.883 501.22 123.712L509.316 111.776C509.401 111.669 509.518 111.616 509.668 111.616H510.468C510.702 111.616 510.82 111.733 510.82 111.968V127.616C510.82 127.765 510.788 127.872 510.724 127.936C510.681 127.979 510.596 128 510.468 128H509.796C509.668 128 509.572 127.979 509.508 127.936C509.465 127.872 509.444 127.765 509.444 127.616V117.056C509.444 115.797 509.508 114.624 509.636 113.536H509.572C509.124 114.325 508.622 115.168 508.068 116.064L500.132 127.776C500.068 127.925 499.94 128 499.748 128H498.948ZM516.699 128C516.549 128 516.453 127.979 516.411 127.936C516.368 127.872 516.347 127.765 516.347 127.616V111.968C516.347 111.84 516.368 111.755 516.411 111.712C516.453 111.648 516.549 111.616 516.699 111.616H517.371C517.605 111.616 517.723 111.733 517.723 111.968V118.912H521.659H521.979L526.747 111.904C526.832 111.776 526.917 111.701 527.003 111.68C527.088 111.637 527.237 111.616 527.451 111.616H527.995C528.229 111.616 528.347 111.68 528.347 111.808C528.347 111.851 528.315 111.925 528.251 112.032L523.291 119.168C523.888 119.317 524.379 119.595 524.763 120C525.168 120.405 525.541 120.981 525.883 121.728L528.475 127.584L528.539 127.84C528.539 127.947 528.432 128 528.219 128H527.643C527.429 128 527.28 127.979 527.195 127.936C527.131 127.893 527.077 127.808 527.035 127.68L524.699 122.304C524.379 121.557 523.995 121.024 523.547 120.704C523.099 120.363 522.512 120.192 521.786 120.192H517.723V127.616C517.723 127.765 517.691 127.872 517.627 127.936C517.584 127.979 517.499 128 517.371 128H516.699ZM537.655 128.448C535.521 128.448 533.964 128.053 532.983 127.264C532.001 126.475 531.511 125.237 531.511 123.552C531.511 121.909 532.012 120.704 533.015 119.936C534.039 119.147 535.617 118.752 537.751 118.752C538.839 118.752 539.777 118.805 540.567 118.912C541.377 119.019 541.825 119.083 541.911 119.104V117.056C541.911 115.413 541.569 114.229 540.887 113.504C540.204 112.757 539.127 112.384 537.655 112.384C535.585 112.384 534.092 113.291 533.175 115.104C533.111 115.211 533.036 115.285 532.951 115.328C532.887 115.349 532.791 115.328 532.663 115.264L532.247 115.072C532.076 115.008 531.991 114.912 531.991 114.784C531.991 114.677 532.012 114.592 532.055 114.528C533.1 112.267 534.967 111.136 537.655 111.136C539.617 111.136 541.036 111.627 541.911 112.608C542.807 113.589 543.255 115.093 543.255 117.12V125.792C543.255 126.347 543.18 126.741 543.031 126.976C542.903 127.211 542.636 127.424 542.231 127.616C541.079 128.171 539.553 128.448 537.655 128.448ZM532.887 123.552C532.887 124.832 533.26 125.781 534.007 126.4C534.775 126.997 535.959 127.296 537.559 127.296C539.095 127.296 540.321 127.072 541.239 126.624C541.516 126.517 541.697 126.4 541.783 126.272C541.868 126.123 541.911 125.856 541.911 125.472V120.256C540.375 120 538.956 119.872 537.655 119.872C536.033 119.872 534.828 120.171 534.039 120.768C533.271 121.365 532.887 122.293 532.887 123.552Z" fill="black"/>
<circle cx="397.5" cy="283.5" r="18.5" fill="#1B63FE"/>
<circle cx="397.5" cy="283.5" r="11.5625" fill="white"/>
<path d="M432.136 280C431.987 280 431.88 279.979 431.816 279.936C431.773 279.872 431.752 279.765 431.752 279.616V264.032C431.752 263.861 431.784 263.755 431.848 263.712C431.912 263.648 432.019 263.616 432.168 263.616H432.84C432.989 263.616 433.096 263.637 433.16 263.68C433.245 263.723 433.32 263.808 433.384 263.936L439.208 275.424L444.904 263.968C444.968 263.819 445.021 263.723 445.064 263.68C445.128 263.637 445.235 263.616 445.384 263.616H446.12C446.269 263.616 446.365 263.648 446.408 263.712C446.472 263.755 446.504 263.861 446.504 264.032V279.616C446.504 279.765 446.472 279.872 446.408 279.936C446.365 279.979 446.269 280 446.12 280H445.576C445.405 280 445.288 279.979 445.224 279.936C445.181 279.872 445.16 279.765 445.16 279.616V269.408C445.16 268.235 445.224 267.008 445.352 265.728H445.288L443.848 268.704L439.848 276.576C439.805 276.704 439.752 276.789 439.688 276.832C439.624 276.875 439.517 276.896 439.368 276.896H439.048C438.899 276.896 438.792 276.875 438.728 276.832C438.664 276.789 438.6 276.704 438.536 276.576L434.568 268.864L433.544 266.848L433 265.728H432.936C433.043 267.221 433.096 268.533 433.096 269.664V279.616C433.096 279.765 433.064 279.872 433 279.936C432.957 279.979 432.861 280 432.712 280H432.136ZM457.186 280.448C455.053 280.448 453.495 280.053 452.514 279.264C451.533 278.475 451.042 277.237 451.042 275.552C451.042 273.909 451.543 272.704 452.546 271.936C453.57 271.147 455.149 270.752 457.282 270.752C458.37 270.752 459.309 270.805 460.098 270.912C460.909 271.019 461.357 271.083 461.442 271.104V269.056C461.442 267.413 461.101 266.229 460.418 265.504C459.735 264.757 458.658 264.384 457.186 264.384C455.117 264.384 453.623 265.291 452.706 267.104C452.642 267.211 452.567 267.285 452.482 267.328C452.418 267.349 452.322 267.328 452.194 267.264L451.778 267.072C451.607 267.008 451.522 266.912 451.522 266.784C451.522 266.677 451.543 266.592 451.586 266.528C452.631 264.267 454.498 263.136 457.186 263.136C459.149 263.136 460.567 263.627 461.442 264.608C462.338 265.589 462.786 267.093 462.786 269.12V277.792C462.786 278.347 462.711 278.741 462.562 278.976C462.434 279.211 462.167 279.424 461.762 279.616C460.61 280.171 459.085 280.448 457.186 280.448ZM452.418 275.552C452.418 276.832 452.791 277.781 453.538 278.4C454.306 278.997 455.49 279.296 457.09 279.296C458.626 279.296 459.853 279.072 460.77 278.624C461.047 278.517 461.229 278.4 461.314 278.272C461.399 278.123 461.442 277.856 461.442 277.472V272.256C459.906 272 458.487 271.872 457.186 271.872C455.565 271.872 454.359 272.171 453.57 272.768C452.802 273.365 452.418 274.293 452.418 275.552ZM468.386 280C468.237 280 468.13 279.979 468.066 279.936C468.023 279.872 468.002 279.765 468.002 279.616V263.968C468.002 263.733 468.13 263.616 468.386 263.616H469.026C469.175 263.616 469.271 263.648 469.314 263.712C469.357 263.755 469.378 263.84 469.378 263.968V278.72H476.578V263.968C476.578 263.84 476.599 263.755 476.642 263.712C476.685 263.648 476.781 263.616 476.93 263.616H477.57C477.719 263.616 477.815 263.648 477.858 263.712C477.901 263.755 477.922 263.84 477.922 263.968V278.72H485.122V263.968C485.122 263.84 485.143 263.755 485.186 263.712C485.229 263.648 485.325 263.616 485.474 263.616H486.146C486.381 263.616 486.498 263.733 486.498 263.968V279.616C486.498 279.765 486.466 279.872 486.402 279.936C486.359 279.979 486.274 280 486.146 280H468.386ZM492.354 280C492.119 280 492.002 279.872 492.002 279.616V263.968C492.002 263.733 492.119 263.616 492.354 263.616H493.058C493.186 263.616 493.271 263.648 493.314 263.712C493.357 263.755 493.378 263.84 493.378 263.968V274.816C493.378 276.117 493.314 277.195 493.186 278.048H493.25L493.602 277.44C494.157 276.459 494.498 275.883 494.626 275.712L502.722 263.776C502.807 263.669 502.925 263.616 503.074 263.616H503.874C504.109 263.616 504.226 263.733 504.226 263.968V279.616C504.226 279.765 504.194 279.872 504.13 279.936C504.087 279.979 504.002 280 503.874 280H503.202C503.074 280 502.978 279.979 502.914 279.936C502.871 279.872 502.85 279.765 502.85 279.616V269.056C502.85 267.797 502.914 266.624 503.042 265.536H502.978C502.53 266.325 502.029 267.168 501.474 268.064L493.538 279.776C493.474 279.925 493.346 280 493.154 280H492.354ZM510.073 280C509.838 280 509.721 279.872 509.721 279.616V263.968C509.721 263.733 509.838 263.616 510.073 263.616H510.777C510.905 263.616 510.99 263.648 511.033 263.712C511.075 263.755 511.097 263.84 511.097 263.968V270.912H520.377V263.968C520.377 263.733 520.494 263.616 520.729 263.616H521.401C521.635 263.616 521.753 263.733 521.753 263.968V279.616C521.753 279.765 521.721 279.872 521.657 279.936C521.614 279.979 521.529 280 521.401 280H520.729C520.601 280 520.505 279.979 520.441 279.936C520.398 279.872 520.377 279.765 520.377 279.616V272.192H511.097V279.616C511.097 279.765 511.075 279.872 511.033 279.936C510.99 279.979 510.905 280 510.777 280H510.073ZM527.604 280C527.369 280 527.252 279.872 527.252 279.616V263.968C527.252 263.733 527.369 263.616 527.604 263.616H528.308C528.436 263.616 528.521 263.648 528.564 263.712C528.607 263.755 528.628 263.84 528.628 263.968V270.912H537.908V263.968C537.908 263.733 538.025 263.616 538.26 263.616H538.932C539.167 263.616 539.284 263.733 539.284 263.968V279.616C539.284 279.765 539.252 279.872 539.188 279.936C539.145 279.979 539.06 280 538.932 280H538.26C538.132 280 538.036 279.979 537.972 279.936C537.929 279.872 537.908 279.765 537.908 279.616V272.192H528.628V279.616C528.628 279.765 528.607 279.872 528.564 279.936C528.521 279.979 528.436 280 528.308 280H527.604ZM550.479 280.448C548.581 280.448 547.066 279.947 545.935 278.944C544.826 277.941 544.271 276.576 544.271 274.848V268.768C544.271 267.04 544.826 265.675 545.935 264.672C547.066 263.648 548.581 263.136 550.479 263.136C552.399 263.136 553.914 263.637 555.023 264.64C556.154 265.643 556.719 267.019 556.719 268.768V274.848C556.719 276.597 556.154 277.973 555.023 278.976C553.914 279.957 552.399 280.448 550.479 280.448ZM545.647 274.848C545.647 276.171 546.085 277.227 546.959 278.016C547.855 278.805 549.029 279.2 550.479 279.2C551.951 279.2 553.125 278.816 553.999 278.048C554.895 277.259 555.343 276.192 555.343 274.848V268.736C555.343 267.392 554.895 266.336 553.999 265.568C553.125 264.8 551.951 264.416 550.479 264.416C549.029 264.416 547.855 264.811 546.959 265.6C546.085 266.368 545.647 267.413 545.647 268.736V274.848ZM567.193 280.448C565.166 280.448 563.641 279.893 562.617 278.784C561.593 277.653 561.081 276.107 561.081 274.144V269.824C561.081 267.733 561.614 266.101 562.681 264.928C563.769 263.733 565.326 263.136 567.353 263.136C569.379 263.136 570.915 263.733 571.961 264.928C573.006 266.123 573.529 267.733 573.529 269.76V271.392C573.529 271.861 573.305 272.096 572.857 272.096H562.457V274.272C562.457 275.829 562.851 277.056 563.641 277.952C564.451 278.827 565.635 279.264 567.193 279.264C568.473 279.264 569.497 278.997 570.265 278.464C571.033 277.931 571.662 277.152 572.153 276.128C572.238 276 572.313 275.925 572.377 275.904C572.462 275.883 572.558 275.904 572.665 275.968L573.113 276.224C573.369 276.352 573.433 276.544 573.305 276.8C572.11 279.232 570.073 280.448 567.193 280.448ZM572.185 270.976V269.696C572.185 268.011 571.779 266.699 570.969 265.76C570.158 264.821 568.953 264.352 567.353 264.352C565.731 264.352 564.505 264.832 563.673 265.792C562.862 266.731 562.457 268.032 562.457 269.696V270.976H572.185Z" fill="black"/>
<path d="M437.448 308.448C435.549 308.448 434.035 307.947 432.904 306.944C431.795 305.941 431.24 304.576 431.24 302.848V296.768C431.24 295.04 431.795 293.675 432.904 292.672C434.035 291.648 435.549 291.136 437.448 291.136C439.368 291.136 440.883 291.637 441.992 292.64C443.123 293.643 443.688 295.019 443.688 296.768V302.848C443.688 304.597 443.123 305.973 441.992 306.976C440.883 307.957 439.368 308.448 437.448 308.448ZM432.616 302.848C432.616 304.171 433.053 305.227 433.928 306.016C434.824 306.805 435.997 307.2 437.448 307.2C438.92 307.2 440.093 306.816 440.968 306.048C441.864 305.259 442.312 304.192 442.312 302.848V296.736C442.312 295.392 441.864 294.336 440.968 293.568C440.093 292.8 438.92 292.416 437.448 292.416C435.997 292.416 434.824 292.811 433.928 293.6C433.053 294.368 432.616 295.413 432.616 296.736V302.848ZM454.834 308.448C452.807 308.448 451.25 307.915 450.161 306.848C449.095 305.76 448.562 304.256 448.562 302.336V294.176C448.562 291.808 448.796 289.931 449.266 288.544C449.756 287.157 450.567 286.144 451.698 285.504C452.828 284.864 454.386 284.544 456.37 284.544H457.426C458.535 284.544 459.324 284.395 459.794 284.096C459.922 284.053 459.996 284.032 460.018 284.032C460.124 284.032 460.22 284.128 460.306 284.32L460.498 284.8L460.562 284.992C460.562 285.077 460.466 285.184 460.274 285.312C459.676 285.675 458.759 285.856 457.522 285.856H456.402C454.738 285.856 453.436 286.112 452.498 286.624C451.559 287.136 450.887 287.979 450.482 289.152C450.076 290.304 449.874 291.893 449.874 293.92V294.688C450.3 293.984 450.93 293.344 451.762 292.768C452.615 292.171 453.703 291.872 455.026 291.872C457.01 291.872 458.524 292.405 459.57 293.472C460.636 294.539 461.17 296.032 461.17 297.952V302.336C461.17 304.277 460.626 305.781 459.538 306.848C458.471 307.915 456.903 308.448 454.834 308.448ZM449.938 302.304C449.938 303.861 450.354 305.067 451.186 305.92C452.018 306.773 453.234 307.2 454.834 307.2C456.455 307.2 457.682 306.773 458.514 305.92C459.367 305.067 459.794 303.861 459.794 302.304V298.016C459.794 296.459 459.367 295.253 458.514 294.4C457.682 293.547 456.455 293.12 454.834 293.12C453.831 293.12 452.978 293.323 452.274 293.728C451.57 294.112 451.026 294.571 450.641 295.104C450.279 295.616 450.044 296.064 449.938 296.448V302.304ZM471.793 316.096C470.342 316.096 469.179 315.787 468.305 315.168C467.43 314.549 466.737 313.664 466.225 312.512C466.161 312.384 466.129 312.277 466.129 312.192C466.129 312.064 466.203 311.968 466.353 311.904L466.801 311.648L467.057 311.584C467.163 311.584 467.27 311.669 467.377 311.84C467.825 312.8 468.39 313.536 469.073 314.048C469.755 314.581 470.662 314.848 471.793 314.848C474.907 314.848 476.465 312.992 476.465 309.28V307.168C475.697 307.488 474.95 307.744 474.225 307.936C473.499 308.128 472.593 308.224 471.505 308.224C469.606 308.224 468.198 307.691 467.281 306.624C466.385 305.557 465.937 304.032 465.937 302.048V291.968C465.937 291.84 465.958 291.755 466.001 291.712C466.043 291.648 466.139 291.616 466.289 291.616H466.961C467.195 291.616 467.312 291.733 467.312 291.968V301.984C467.312 303.648 467.665 304.896 468.369 305.728C469.073 306.56 470.182 306.976 471.697 306.976C472.678 306.976 473.531 306.88 474.257 306.688C475.003 306.475 475.739 306.208 476.465 305.888V291.968C476.465 291.733 476.582 291.616 476.817 291.616H477.489C477.723 291.616 477.841 291.733 477.841 291.968V309.184C477.841 313.792 475.825 316.096 471.793 316.096ZM492.721 308C492.593 308 492.497 307.979 492.433 307.936C492.39 307.872 492.369 307.765 492.369 307.616V301.056C492.305 301.077 491.868 301.216 491.057 301.472C490.268 301.707 489.233 301.824 487.953 301.824C486.012 301.824 484.582 301.365 483.665 300.448C482.769 299.531 482.321 298.101 482.321 296.16V291.968C482.321 291.84 482.342 291.755 482.385 291.712C482.428 291.648 482.513 291.616 482.641 291.616H483.345C483.58 291.616 483.697 291.733 483.697 291.968V296.128C483.697 297.707 484.038 298.837 484.721 299.52C485.425 300.203 486.566 300.544 488.145 300.544C488.998 300.544 489.82 300.448 490.609 300.256C491.398 300.064 491.985 299.893 492.369 299.744V291.968C492.369 291.733 492.486 291.616 492.721 291.616H493.393C493.628 291.616 493.745 291.733 493.745 291.968V307.616C493.745 307.765 493.713 307.872 493.649 307.936C493.606 307.979 493.521 308 493.393 308H492.721ZM504.724 308.448C502.697 308.448 501.172 307.893 500.148 306.784C499.124 305.653 498.612 304.107 498.612 302.144V297.824C498.612 295.733 499.145 294.101 500.212 292.928C501.3 291.733 502.857 291.136 504.884 291.136C506.911 291.136 508.447 291.733 509.492 292.928C510.537 294.123 511.06 295.733 511.06 297.76V299.392C511.06 299.861 510.836 300.096 510.388 300.096H499.988V302.272C499.988 303.829 500.383 305.056 501.172 305.952C501.983 306.827 503.167 307.264 504.724 307.264C506.004 307.264 507.028 306.997 507.796 306.464C508.564 305.931 509.193 305.152 509.684 304.128C509.769 304 509.844 303.925 509.908 303.904C509.993 303.883 510.089 303.904 510.196 303.968L510.644 304.224C510.9 304.352 510.964 304.544 510.836 304.8C509.641 307.232 507.604 308.448 504.724 308.448ZM509.716 298.976V297.696C509.716 296.011 509.311 294.699 508.5 293.76C507.689 292.821 506.484 292.352 504.884 292.352C503.263 292.352 502.036 292.832 501.204 293.792C500.393 294.731 499.988 296.032 499.988 297.696V298.976H509.716ZM516.104 308C515.869 308 515.752 307.872 515.752 307.616V291.968C515.752 291.733 515.869 291.616 516.104 291.616H516.808C516.936 291.616 517.021 291.648 517.064 291.712C517.107 291.755 517.128 291.84 517.128 291.968V298.912H526.408V291.968C526.408 291.733 526.525 291.616 526.76 291.616H527.432C527.667 291.616 527.784 291.733 527.784 291.968V307.616C527.784 307.765 527.752 307.872 527.688 307.936C527.645 307.979 527.56 308 527.432 308H526.76C526.632 308 526.536 307.979 526.472 307.936C526.429 307.872 526.408 307.765 526.408 307.616V300.192H517.128V307.616C517.128 307.765 517.107 307.872 517.064 307.936C517.021 307.979 516.936 308 516.808 308H516.104ZM533.635 308C533.401 308 533.283 307.872 533.283 307.616V291.968C533.283 291.733 533.401 291.616 533.635 291.616H534.339C534.467 291.616 534.553 291.648 534.595 291.712C534.638 291.755 534.659 291.84 534.659 291.968V302.816C534.659 304.117 534.595 305.195 534.467 306.048H534.531L534.883 305.44C535.438 304.459 535.779 303.883 535.907 303.712L544.003 291.776C544.089 291.669 544.206 291.616 544.355 291.616H545.155C545.39 291.616 545.507 291.733 545.507 291.968V307.616C545.507 307.765 545.475 307.872 545.411 307.936C545.369 307.979 545.283 308 545.155 308H544.483C544.355 308 544.259 307.979 544.195 307.936C544.153 307.872 544.131 307.765 544.131 307.616V297.056C544.131 295.797 544.195 294.624 544.323 293.536H544.259C543.811 294.325 543.31 295.168 542.755 296.064L534.819 307.776C534.755 307.925 534.627 308 534.435 308H533.635ZM556.474 308.448C554.447 308.448 552.922 307.893 551.898 306.784C550.874 305.653 550.362 304.107 550.362 302.144V297.824C550.362 295.733 550.895 294.101 551.962 292.928C553.05 291.733 554.607 291.136 556.634 291.136C558.661 291.136 560.197 291.733 561.242 292.928C562.287 294.123 562.81 295.733 562.81 297.76V299.392C562.81 299.861 562.586 300.096 562.138 300.096H551.738V302.272C551.738 303.829 552.133 305.056 552.922 305.952C553.733 306.827 554.917 307.264 556.474 307.264C557.754 307.264 558.778 306.997 559.546 306.464C560.314 305.931 560.943 305.152 561.434 304.128C561.519 304 561.594 303.925 561.658 303.904C561.743 303.883 561.839 303.904 561.946 303.968L562.394 304.224C562.65 304.352 562.714 304.544 562.586 304.8C561.391 307.232 559.354 308.448 556.474 308.448ZM561.466 298.976V297.696C561.466 296.011 561.061 294.699 560.25 293.76C559.439 292.821 558.234 292.352 556.634 292.352C555.013 292.352 553.786 292.832 552.954 293.792C552.143 294.731 551.738 296.032 551.738 297.696V298.976H561.466Z" fill="black"/>
<circle cx="84.5" cy="367.5" r="18.5" fill="#1B63FE"/>
<circle cx="84.5002" cy="367.5" r="11.5625" fill="white"/>
<path d="M117.28 382.448C117.152 382.448 117.056 382.416 116.992 382.352C116.949 382.309 116.928 382.213 116.928 382.064V377.104C116.928 376.955 116.949 376.859 116.992 376.816C117.056 376.752 117.152 376.72 117.28 376.72H118.304C118.752 376.315 119.125 375.813 119.424 375.216C119.723 374.597 119.968 373.648 120.16 372.368C120.352 371.067 120.448 369.317 120.448 367.12V361.968C120.448 361.733 120.565 361.616 120.8 361.616H130.72C130.955 361.616 131.072 361.733 131.072 361.968V376.72H132.768C132.917 376.72 133.013 376.752 133.056 376.816C133.099 376.859 133.12 376.955 133.12 377.104V382.064C133.12 382.213 133.099 382.309 133.056 382.352C133.013 382.416 132.917 382.448 132.768 382.448H132.16C132.011 382.448 131.904 382.416 131.84 382.352C131.797 382.309 131.776 382.213 131.776 382.064V378H118.272V382.064C118.272 382.213 118.24 382.309 118.176 382.352C118.133 382.416 118.037 382.448 117.888 382.448H117.28ZM129.696 376.72V362.864H121.792V367.184C121.792 370.021 121.632 372.144 121.312 373.552C120.992 374.96 120.512 376.016 119.872 376.72H129.696ZM137.385 378C137.151 378 137.033 377.872 137.033 377.616V361.968C137.033 361.733 137.151 361.616 137.385 361.616H138.089C138.217 361.616 138.303 361.648 138.345 361.712C138.388 361.755 138.409 361.84 138.409 361.968V372.816C138.409 374.117 138.345 375.195 138.217 376.048H138.281L138.633 375.44C139.188 374.459 139.529 373.883 139.657 373.712L147.753 361.776C147.839 361.669 147.956 361.616 148.105 361.616H148.905C149.14 361.616 149.257 361.733 149.257 361.968V377.616C149.257 377.765 149.225 377.872 149.161 377.936C149.119 377.979 149.033 378 148.905 378H148.233C148.105 378 148.009 377.979 147.945 377.936C147.903 377.872 147.881 377.765 147.881 377.616V367.056C147.881 365.797 147.945 364.624 148.073 363.536H148.009C147.561 364.325 147.06 365.168 146.505 366.064L138.569 377.776C138.505 377.925 138.377 378 138.185 378H137.385ZM160.224 378.448C157.045 378.448 154.859 376.955 153.664 373.968C153.621 373.84 153.6 373.765 153.6 373.744C153.6 373.616 153.707 373.52 153.92 373.456L154.432 373.296C154.496 373.275 154.571 373.264 154.656 373.264C154.763 373.264 154.848 373.36 154.912 373.552C155.829 375.984 157.579 377.2 160.16 377.2C161.675 377.2 162.805 376.88 163.552 376.24C164.32 375.579 164.704 374.683 164.704 373.552C164.704 372.421 164.427 371.579 163.872 371.024C163.317 370.469 162.432 370.192 161.216 370.192H158.08C157.952 370.192 157.867 370.171 157.824 370.128C157.781 370.064 157.76 369.957 157.76 369.808V369.392C157.76 369.243 157.781 369.147 157.824 369.104C157.867 369.04 157.952 369.008 158.08 369.008H161.216C162.261 369.008 163.061 368.731 163.616 368.176C164.171 367.621 164.448 366.843 164.448 365.84C164.448 364.837 164.075 364.016 163.328 363.376C162.603 362.715 161.525 362.384 160.096 362.384C158.731 362.384 157.611 362.725 156.736 363.408C155.861 364.091 155.307 364.869 155.072 365.744C155.029 365.915 154.976 366.021 154.912 366.064C154.848 366.085 154.741 366.075 154.592 366.032L154.112 365.872C153.877 365.787 153.803 365.605 153.888 365.328C154.208 364.432 154.816 363.515 155.712 362.576C156.629 361.616 158.091 361.136 160.096 361.136C161.973 361.136 163.392 361.563 164.352 362.416C165.333 363.248 165.824 364.368 165.824 365.776C165.824 366.651 165.632 367.408 165.248 368.048C164.864 368.688 164.288 369.168 163.52 369.488V369.52C165.248 370.053 166.112 371.429 166.112 373.648C166.112 375.141 165.621 376.315 164.64 377.168C163.659 378.021 162.187 378.448 160.224 378.448ZM176.03 378.448C173.896 378.448 172.339 378.053 171.358 377.264C170.376 376.475 169.886 375.237 169.886 373.552C169.886 371.909 170.387 370.704 171.39 369.936C172.414 369.147 173.992 368.752 176.126 368.752C177.214 368.752 178.152 368.805 178.942 368.912C179.752 369.019 180.2 369.083 180.286 369.104V367.056C180.286 365.413 179.944 364.229 179.262 363.504C178.579 362.757 177.502 362.384 176.03 362.384C173.96 362.384 172.467 363.291 171.55 365.104C171.486 365.211 171.411 365.285 171.326 365.328C171.262 365.349 171.166 365.328 171.038 365.264L170.622 365.072C170.451 365.008 170.366 364.912 170.366 364.784C170.366 364.677 170.387 364.592 170.43 364.528C171.475 362.267 173.342 361.136 176.03 361.136C177.992 361.136 179.411 361.627 180.286 362.608C181.182 363.589 181.63 365.093 181.63 367.12V375.792C181.63 376.347 181.555 376.741 181.406 376.976C181.278 377.211 181.011 377.424 180.606 377.616C179.454 378.171 177.928 378.448 176.03 378.448ZM171.262 373.552C171.262 374.832 171.635 375.781 172.382 376.4C173.15 376.997 174.334 377.296 175.934 377.296C177.47 377.296 178.696 377.072 179.614 376.624C179.891 376.517 180.072 376.4 180.158 376.272C180.243 376.123 180.286 375.856 180.286 375.472V370.256C178.75 370 177.331 369.872 176.03 369.872C174.408 369.872 173.203 370.171 172.414 370.768C171.646 371.365 171.262 372.293 171.262 373.552ZM187.198 378C186.963 378 186.846 377.872 186.846 377.616V361.968C186.846 361.733 186.963 361.616 187.198 361.616H187.902C188.03 361.616 188.115 361.648 188.158 361.712C188.2 361.755 188.222 361.84 188.222 361.968V372.816C188.222 374.117 188.158 375.195 188.03 376.048H188.094L188.446 375.44C189 374.459 189.342 373.883 189.47 373.712L197.566 361.776C197.651 361.669 197.768 361.616 197.918 361.616H198.718C198.952 361.616 199.07 361.733 199.07 361.968V377.616C199.07 377.765 199.038 377.872 198.974 377.936C198.931 377.979 198.846 378 198.718 378H198.046C197.918 378 197.822 377.979 197.758 377.936C197.715 377.872 197.694 377.765 197.694 377.616V367.056C197.694 365.797 197.758 364.624 197.886 363.536H197.822C197.374 364.325 196.872 365.168 196.318 366.064L188.382 377.776C188.318 377.925 188.19 378 187.998 378H187.198ZM188.798 355.376C188.798 355.269 188.883 355.184 189.054 355.12L189.502 354.96H189.63C189.779 354.96 189.875 355.024 189.918 355.152C190.174 356.133 190.558 356.859 191.07 357.328C191.603 357.776 192.296 358 193.15 358C194.003 358 194.686 357.776 195.198 357.328C195.731 356.859 196.126 356.133 196.382 355.152C196.467 355.003 196.584 354.939 196.734 354.96L197.278 355.12C197.384 355.163 197.448 355.216 197.47 355.28C197.491 355.323 197.491 355.408 197.47 355.536C197.128 356.731 196.606 357.627 195.902 358.224C195.198 358.8 194.28 359.088 193.15 359.088C192.019 359.088 191.102 358.8 190.398 358.224C189.694 357.627 189.171 356.731 188.83 355.536L188.798 355.376ZM203.948 378C203.713 378 203.596 377.872 203.596 377.616V361.968C203.596 361.733 203.713 361.616 203.948 361.616H204.652C204.78 361.616 204.865 361.648 204.908 361.712C204.95 361.755 204.972 361.84 204.972 361.968V368.912H214.252V361.968C214.252 361.733 214.369 361.616 214.604 361.616H215.276C215.51 361.616 215.628 361.733 215.628 361.968V377.616C215.628 377.765 215.596 377.872 215.532 377.936C215.489 377.979 215.404 378 215.276 378H214.604C214.476 378 214.38 377.979 214.316 377.936C214.273 377.872 214.252 377.765 214.252 377.616V370.192H204.972V377.616C204.972 377.765 204.95 377.872 204.908 377.936C204.865 377.979 204.78 378 204.652 378H203.948Z" fill="black"/>
<circle cx="245.5" cy="235.5" r="18.5" fill="#1B63FE"/>
<circle cx="245.5" cy="235.5" r="11.5625" fill="white"/>
</g>
<defs>
<clipPath id="clip0_333_125">
<rect width="590" height="386" fill="white"/>
</clipPath>
</defs>
</svg>
