<svg width="590" height="386" viewBox="0 0 590 386" fill="none" xmlns="http://www.w3.org/2000/svg">
<rect width="590" height="386" fill="white"/>
<path d="M532.765 116.129C538.328 113.949 543.938 108.984 543.938 98.9691C543.938 84.0713 531.523 80.3468 525.316 80.3468C525.316 72.8979 525.316 58 502.969 58C480.622 58 480.622 72.8979 480.622 80.3468C474.415 80.3468 462 84.0713 462 98.9691C462 108.984 467.61 113.949 473.173 116.129" stroke="#1B63FE" stroke-width="2" stroke-linecap="round" stroke-linejoin="round"/>
<path d="M486.509 123.131L493.093 129.715C498.911 135.533 508.344 135.533 514.162 129.715L515.479 128.398" stroke="#1B63FE" stroke-width="2" stroke-linecap="round" stroke-linejoin="round"/>
<path d="M487.826 132.349L486.509 123.131L495.726 124.448L487.826 132.349Z" stroke="#1B63FE" stroke-width="2" stroke-linecap="round" stroke-linejoin="round"/>
<path d="M518.977 113.501L512.393 106.917C506.575 101.099 497.142 101.099 491.324 106.917L490.007 108.234" stroke="#1B63FE" stroke-width="2" stroke-linecap="round" stroke-linejoin="round"/>
<path d="M517.66 104.283L518.977 113.501L509.76 112.184L517.66 104.283Z" stroke="#1B63FE" stroke-width="2" stroke-linecap="round" stroke-linejoin="round"/>
<path d="M153.693 114.617L153.729 114.576" stroke="#1B63FE" stroke-width="2" stroke-linecap="round" stroke-linejoin="round"/>
<path d="M117 72.3838C139.016 55.8721 168.37 55.8721 190.385 72.3838" stroke="#1B63FE" stroke-width="2" stroke-linecap="round" stroke-linejoin="round"/>
<path d="M128.008 87.0608C142.685 76.053 164.7 76.053 179.378 87.0608" stroke="#1B63FE" stroke-width="2" stroke-linecap="round" stroke-linejoin="round"/>
<path d="M140.85 99.9036C149.108 94.7666 158.279 94.7651 166.536 99.9036" stroke="#1B63FE" stroke-width="2" stroke-linecap="round" stroke-linejoin="round"/>
<path d="M68 284.535V237.202C68 235.986 68.9857 235 70.2016 235H139.184C140.4 235 141.385 235.986 141.385 237.202V284.535M68 284.535V291.507C68 292.723 68.9857 293.708 70.2016 293.708H139.184C140.4 293.708 141.385 292.723 141.385 291.507V284.535M68 284.535H141.385M93.6849 308.385H99.1888M99.1888 308.385V293.708M99.1888 308.385H110.197M110.197 308.385H115.7M110.197 308.385V293.708" stroke="#1B63FE" stroke-width="2" stroke-linecap="round" stroke-linejoin="round"/>
<path d="M442.312 320.111L442.351 320.069" stroke="#1B63FE" stroke-width="2" stroke-linecap="round" stroke-linejoin="round"/>
<path d="M442.312 273.725H425.317C424.038 273.725 423 274.762 423 276.042V333.206C423 334.486 424.038 335.523 425.317 335.523H459.306C460.586 335.523 461.624 334.486 461.624 333.206V316.211" stroke="#1B63FE" stroke-width="2" stroke-linecap="round" stroke-linejoin="round"/>
<path d="M473.211 266V304.624" stroke="#1B63FE" stroke-width="2" stroke-linecap="round" stroke-linejoin="round"/>
<path d="M461.624 273.725V296.899" stroke="#1B63FE" stroke-width="2" stroke-linecap="round" stroke-linejoin="round"/>
<path d="M496.385 281.449V289.174" stroke="#1B63FE" stroke-width="2" stroke-linecap="round" stroke-linejoin="round"/>
<path d="M450.037 281.449V289.174" stroke="#1B63FE" stroke-width="2" stroke-linecap="round" stroke-linejoin="round"/>
<path d="M484.798 269.862V300.761" stroke="#1B63FE" stroke-width="2" stroke-linecap="round" stroke-linejoin="round"/>
<path d="M258 221.707V218.371C258 205.475 268.454 195.021 281.35 195.021C294.246 195.021 304.7 205.475 304.7 218.371V221.707" stroke="#1B63FE" stroke-width="2" stroke-linecap="round"/>
<path d="M298.028 201.693C298.028 192.481 305.496 185.014 314.707 185.014C323.918 185.014 331.385 192.481 331.385 201.693V203.36" stroke="#1B63FE" stroke-width="2" stroke-linecap="round"/>
<path d="M281.35 195.021C288.719 195.021 294.693 189.047 294.693 181.678C294.693 174.309 288.719 168.336 281.35 168.336C273.981 168.336 268.007 174.309 268.007 181.678C268.007 189.047 273.981 195.021 281.35 195.021Z" stroke="#1B63FE" stroke-width="2" stroke-linecap="round" stroke-linejoin="round"/>
<path d="M314.707 185.014C320.234 185.014 324.714 180.534 324.714 175.007C324.714 169.48 320.234 165 314.707 165C309.18 165 304.7 169.48 304.7 175.007C304.7 180.534 309.18 185.014 314.707 185.014Z" stroke="#1B63FE" stroke-width="2" stroke-linecap="round" stroke-linejoin="round"/>
</svg>
